<svg width="20" height="19" viewBox="0 0 20 19" fill="none" xmlns="http://www.w3.org/2000/svg">
<path d="M11.5833 11.875L8.41667 15.0417L11.5833 18.2083" stroke="white" stroke-width="2"/>
<path d="M14.7992 6.72921C15.2856 7.57165 15.5417 8.52728 15.5417 9.50004C15.5417 10.4728 15.2856 11.4284 14.7992 12.2709C14.3128 13.1133 13.6133 13.8129 12.7708 14.2993C11.9284 14.7856 10.9728 15.0417 10 15.0417" stroke="white" stroke-width="2" stroke-linecap="round"/>
<path d="M8.41667 7.125L11.5833 3.95833L8.41667 0.791667" stroke="white" stroke-width="2"/>
<path d="M5.20078 12.2708C4.71439 11.4284 4.45833 10.4727 4.45833 9.49996C4.45833 8.52719 4.71439 7.57157 5.20078 6.72913C5.68716 5.88669 6.38673 5.18712 7.22917 4.70073C8.07161 4.21435 9.02724 3.95829 10 3.95829" stroke="white" stroke-width="2" stroke-linecap="round"/>
</svg>
